<svg id="Layer_1" data-name="Layer 1" xmlns="http://www.w3.org/2000/svg" width="6.2in" height="6.2in" viewBox="0 0 446.1 446.1"><title>Artboard 1</title><path d="M349.7,211.4a127.9,127.9,0,0,0-78.5-106.2,130.4,130.4,0,0,0-24-7.2V349.5a99.6,99.6,0,0,0,24-9.3V235.4h78.5q.6-6,.6-12A117.6,117.6,0,0,0,349.7,211.4Zm-78.5,0V133.3a102.3,102.3,0,0,1,52.9,78.1Z" fill="#fff"/><path d="M173.8,105.2A128.3,128.3,0,0,0,97.3,198h26.1a102.3,102.3,0,0,1,50.4-64.7v78.1H140.6v24h33.2V340.2a99.6,99.6,0,0,0,24,9.3V98A128.1,128.1,0,0,0,173.8,105.2Z" fill="#fff"/><path d="M331.1,331.1l22.7,22.7a184.3,184.3,0,0,1-118,53.8c-4.2.2-8.5.4-12.7.4s-8.6-.2-12.7-.4A184.6,184.6,0,0,1,92.3,353.8L115,331.1a151.6,151.6,0,0,0,95.4,44.2V70.8A151.6,151.6,0,0,0,115,115L92.3,92.3A184,184,0,0,1,210.4,38.6c4.1-.3,8.4-.5,12.7-.5s8.5.2,12.7.5a183.7,183.7,0,0,1,118,53.7L331.1,115a151.6,151.6,0,0,0-95.3-44.2V375.3A151.6,151.6,0,0,0,331.1,331.1Z" fill="#fff"/><circle cx="223.1" cy="223.1" r="216" fill="none" stroke="#fff" stroke-miterlimit="10" stroke-width="14.12"/></svg>