<svg xmlns="http://www.w3.org/2000/svg" id="Calque_1" width="34.7in" height="34.7in" viewBox="0 0 2500 2500"><circle cx="1250" cy="1250" r="1239.1" fill="#fff" stroke="#000" stroke-miterlimit="10"/><path id="behance" d="M883.1 683.6q80.9 0 147.6 14.3t114.2 46.8q47.5 32.5 73.8 86.5t26.2 133.3q0 85.7-38.9 142.8t-115 93.6q104.7 30.1 156.3 105.5t51.6 181.7q0 85.7-33.3 148.4t-89.7 102.3q-56.4 39.8-128.5 58.7a580.1 580.1 0 0 1-148.3 19H350V683.6zm-31.7 458.5q66.6 0 109.5-31.7t42.8-103.1q0-39.6-14.3-65c-9.5-16.9-22.2-30.2-38.1-39.7s-34.1-16.1-54.7-19.8a364.1 364.1 0 0 0-64.3-5.5H599.2v265l252.2-.2zm14.3 480.7a333.4 333.4 0 0 0 69.8-7.1q33.3-7.2 58.7-23.8t40.5-45.2c10-19 15.1-43.4 15.1-73 0-58.1-16.4-99.7-49.2-124.5s-76.2-37.3-130.1-37.3H599.2v311zm746.6-23.8q50.7 49.2 146 49.2 68.3 0 117.4-34.1t60.3-72.2h198.3q-47.6 147.6-146 211t-238 63.5q-96.7 0-174.5-30.9t-131.7-88.1q-54-57.2-83.3-136.4t-29.3-174.5q0-91.9 30.1-171.3t85.7-137.2q55.5-57.9 132.5-91.2t170.6-33.3q104.7 0 182.5 40.5t127.7 108.7q50 68.3 72.2 155.5t15.9 182.5h-591.8c3.1 72.7 21.6 125.6 55.4 158.3zm254.7-431.5q-40.5-44.4-123-44.4-54 0-89.6 18.2c-23.8 12.2-42.8 27.2-57.1 45.2s-24.3 37-30.1 57.1-9.3 38.1-10.3 53.9h366.5q-16.1-85.5-56.4-130zm-348.7-426.4h457.9v127h-457.9z"/></svg>