<svg xmlns="http://www.w3.org/2000/svg" id="Layer_1" width="34.7in" height="34.7in" viewBox="0 0 2500 2500"><path fill="#fff" d="M0 1250q0-340 167.5-627.5t455-455Q910.1-.1 1250 0t627.5 167.5q287.5 167.5 455 455T2500 1250q0 340.1-167.5 627.5t-455 455Q1589.9 2500 1250 2500t-627.5-167.5q-287.5-167.5-455-455T0 1250zm207.5 0q0 390 262.5 687.5 120-235 380-447.5t507.5-267.5q-37.5-87.4-72.5-157.5-430 137.6-930 137.5-97.5 0-145-2.5c0 6.7-.4 15-1.2 25s-1.3 18.3-1.3 25zM240 992.5q55 4.9 162.5 5Q820 997.5 1195 885q-190-337.5-417.5-562.5Q579.9 422.6 438.8 600T240 992.5zm372.5 1080q282.4 220 637.5 220 184.9 0 367.5-70-49.9-427.5-195-827.5-229.9 49.9-463.7 252.5t-346.3 425zM995 242.5q220.1 227.6 407.5 567.5 340.1-142.5 512.5-362.5-289.9-240-665-240-127.5 0-255 35zm497.5 745q37.5 79.9 85 202.5 184.9-17.6 402.5-17.5 155 0 307.5 7.5-20-340.1-245-605-162.4 242.6-550 412.5zM1640 1365a3588.8 3588.8 0 0 1 172.5 760q197.6-127.5 322.5-327.5t150-432.5q-182.5-12.4-332.5-12.5-137.5 0-312.5 12.5z"/></svg>