<svg xmlns="http://www.w3.org/2000/svg"><symbol id="behance" viewBox="0 0 2500 2500"><circle cx="1250" cy="1250" r="1239.1" fill="#fff" stroke="#000" stroke-miterlimit="10"/><path id="behance" d="M883.1 683.6q80.9 0 147.6 14.3t114.2 46.8q47.5 32.5 73.8 86.5t26.2 133.3q0 85.7-38.9 142.8t-115 93.6q104.7 30.1 156.3 105.5t51.6 181.7q0 85.7-33.3 148.4t-89.7 102.3q-56.4 39.8-128.5 58.7a580.1 580.1 0 0 1-148.3 19H350V683.6zm-31.7 458.5q66.6 0 109.5-31.7t42.8-103.1q0-39.6-14.3-65c-9.5-16.9-22.2-30.2-38.1-39.7s-34.1-16.1-54.7-19.8a364.1 364.1 0 0 0-64.3-5.5H599.2v265l252.2-.2zm14.3 480.7a333.4 333.4 0 0 0 69.8-7.1q33.3-7.2 58.7-23.8t40.5-45.2c10-19 15.1-43.4 15.1-73 0-58.1-16.4-99.7-49.2-124.5s-76.2-37.3-130.1-37.3H599.2v311zm746.6-23.8q50.7 49.2 146 49.2 68.3 0 117.4-34.1t60.3-72.2h198.3q-47.6 147.6-146 211t-238 63.5q-96.7 0-174.5-30.9t-131.7-88.1q-54-57.2-83.3-136.4t-29.3-174.5q0-91.9 30.1-171.3t85.7-137.2q55.5-57.9 132.5-91.2t170.6-33.3q104.7 0 182.5 40.5t127.7 108.7q50 68.3 72.2 155.5t15.9 182.5h-591.8c3.1 72.7 21.6 125.6 55.4 158.3zm254.7-431.5q-40.5-44.4-123-44.4-54 0-89.6 18.2c-23.8 12.2-42.8 27.2-57.1 45.2s-24.3 37-30.1 57.1-9.3 38.1-10.3 53.9h366.5q-16.1-85.5-56.4-130zm-348.7-426.4h457.9v127h-457.9z"/></symbol><symbol id="dribbble" viewBox="0 0 2500 2500"><path fill="#fff" d="M0 1250q0-340 167.5-627.5t455-455Q910.1-.1 1250 0t627.5 167.5q287.5 167.5 455 455T2500 1250q0 340.1-167.5 627.5t-455 455Q1589.9 2500 1250 2500t-627.5-167.5q-287.5-167.5-455-455T0 1250zm207.5 0q0 390 262.5 687.5 120-235 380-447.5t507.5-267.5q-37.5-87.4-72.5-157.5-430 137.6-930 137.5-97.5 0-145-2.5c0 6.7-.4 15-1.2 25s-1.3 18.3-1.3 25zM240 992.5q55 4.9 162.5 5Q820 997.5 1195 885q-190-337.5-417.5-562.5Q579.9 422.6 438.8 600T240 992.5zm372.5 1080q282.4 220 637.5 220 184.9 0 367.5-70-49.9-427.5-195-827.5-229.9 49.9-463.7 252.5t-346.3 425zM995 242.5q220.1 227.6 407.5 567.5 340.1-142.5 512.5-362.5-289.9-240-665-240-127.5 0-255 35zm497.5 745q37.5 79.9 85 202.5 184.9-17.6 402.5-17.5 155 0 307.5 7.5-20-340.1-245-605-162.4 242.6-550 412.5zM1640 1365a3588.8 3588.8 0 0 1 172.5 760q197.6-127.5 322.5-327.5t150-432.5q-182.5-12.4-332.5-12.5-137.5 0-312.5 12.5z"/></symbol><symbol id="pinterest" viewBox="0 0 2500 2500"><path fill="#fff" d="M0 1250.1q9.8-532.2 376-888.6T1250.1 0q546.9 9.8 896.1 373.5t354 876.6q-9.7 527.4-376 886.4T1250.1 2500q-175.8 0-351.5-53.8c22.7-35.7 45.5-76.5 68.2-122q39-82.8 97.8-312.5 14.7-63.5 44-171c22.8 39 61.8 74.7 117.3 107.5q219.8 102.5 463.8-19.5 253.8-146.7 351.5-454.1 87.7-322-22-598t-393-398.1q-356.4-102.3-693.4 22.1T464 927.8c-22.7 74.8-36.5 149.1-41.5 222.3a1035.8 1035.8 0 0 0 7.3 214.8q14.6 105 73.3 188c39 55.3 91.2 97.8 156.2 127q24.5 9.8 39 0 19.5-9.7 39-78c13-45.5 18-76.5 14.8-92.7-3.3-6.5-9.8-18.1-19.5-34.3q-102.5-166.2-68.3-349t151.3-310.1q180.8-161.2 422.3-175.7t412.5 131.7q92.7 107.3 119.5 258.8c17.8 101 18 197.8 0 290.5a873.4 873.4 0 0 1-95.2 261.3q-122.2 190.5-288.1 195.3-97.5-5-158.7-75.8t-36.5-163.5q9.8-53.6 58.5-210t53.7-234.3q-14.5-185.7-171-190.5c-81.5 9.7-141.5 46.5-180.8 109.8s-60.2 136-63.5 217.2q14.7 141.8 44 195.3-53.5 219.8-83 351.5-9.7 34.2-53.7 210T746.8 2256v136.7Q400.3 2231.5 200 1926.4T0 1250.1z"/></symbol></svg>