<svg xmlns="http://www.w3.org/2000/svg" id="Layer_1" width="34.7in" height="34.7in" viewBox="0 0 2500 2500"><path fill="#fff" d="M0 1250.1q9.8-532.2 376-888.6T1250.1 0q546.9 9.8 896.1 373.5t354 876.6q-9.7 527.4-376 886.4T1250.1 2500q-175.8 0-351.5-53.8c22.7-35.7 45.5-76.5 68.2-122q39-82.8 97.8-312.5 14.7-63.5 44-171c22.8 39 61.8 74.7 117.3 107.5q219.8 102.5 463.8-19.5 253.8-146.7 351.5-454.1 87.7-322-22-598t-393-398.1q-356.4-102.3-693.4 22.1T464 927.8c-22.7 74.8-36.5 149.1-41.5 222.3a1035.8 1035.8 0 0 0 7.3 214.8q14.6 105 73.3 188c39 55.3 91.2 97.8 156.2 127q24.5 9.8 39 0 19.5-9.7 39-78c13-45.5 18-76.5 14.8-92.7-3.3-6.5-9.8-18.1-19.5-34.3q-102.5-166.2-68.3-349t151.3-310.1q180.8-161.2 422.3-175.7t412.5 131.7q92.7 107.3 119.5 258.8c17.8 101 18 197.8 0 290.5a873.4 873.4 0 0 1-95.2 261.3q-122.2 190.5-288.1 195.3-97.5-5-158.7-75.8t-36.5-163.5q9.8-53.6 58.5-210t53.7-234.3q-14.5-185.7-171-190.5c-81.5 9.7-141.5 46.5-180.8 109.8s-60.2 136-63.5 217.2q14.7 141.8 44 195.3-53.5 219.8-83 351.5-9.7 34.2-53.7 210T746.8 2256v136.7Q400.3 2231.5 200 1926.4T0 1250.1z"/></svg>